<svg width="57" height="49" viewBox="0 0 57 49" fill="none" xmlns="http://www.w3.org/2000/svg">
<rect width="57" height="49" rx="6" fill="#005BB9"/>
<g clip-path="url(#clip0_1:557)">
<path d="M26.4609 28.7073C25.2773 28.7073 24.3145 29.6702 24.3145 30.8537C24.3145 32.0373 25.2773 33.0002 26.4609 33.0002C27.6444 33.0002 28.6073 32.0373 28.6073 30.8537C28.6073 29.6702 27.6444 28.7073 26.4609 28.7073ZM26.4609 31.7123C25.9874 31.7123 25.6023 31.3272 25.6023 30.8537C25.6023 30.3802 25.9874 29.9952 26.4609 29.9952C26.9342 29.9952 27.3195 30.3802 27.3195 30.8537C27.3195 31.3272 26.9344 31.7123 26.4609 31.7123Z" fill="white"/>
<path d="M32.8145 28.7073C31.631 28.7073 30.6681 29.6702 30.6681 30.8537C30.6681 32.0373 31.631 33.0002 32.8145 33.0002C33.9981 33.0002 34.961 32.0373 34.961 30.8537C34.961 29.6702 33.9981 28.7073 32.8145 28.7073ZM32.8145 31.7123C32.341 31.7123 31.956 31.3272 31.956 30.8537C31.956 30.3802 32.341 29.9952 32.8145 29.9952C33.288 29.9952 33.6731 30.3802 33.6731 30.8537C33.6731 31.3272 33.288 31.7123 32.8145 31.7123Z" fill="white"/>
<path d="M36.538 20.1927C36.4157 20.039 36.2302 19.9495 36.034 19.9495H24.7589L24.1735 16.9913C24.1222 16.7322 23.9179 16.5307 23.658 16.483L21.0822 16.0108C20.7317 15.9462 20.3969 16.1782 20.3327 16.5281C20.2685 16.878 20.5001 17.2134 20.85 17.2776L22.9952 17.6708L24.8849 27.2223C24.9445 27.5238 25.2092 27.7412 25.5166 27.7412H34.5316C34.8314 27.7412 35.0914 27.5346 35.159 27.242L36.6615 20.7383C36.7057 20.5471 36.6602 20.3461 36.538 20.1927ZM34.0194 26.4534H26.0454L25.0136 21.2376H35.2242L34.0194 26.4534Z" fill="white"/>
</g>
<defs>
<clipPath id="clip0_1:557">
<rect width="17" height="17" fill="white" transform="translate(20 16)"/>
</clipPath>
</defs>
</svg>
