<svg width="106" height="51" viewBox="0 0 106 51" fill="none" xmlns="http://www.w3.org/2000/svg">
<rect x="53" y="9" width="1" height="20" fill="#0C1A2A"/>
<rect y="29" width="106" height="22" rx="4" fill="#0C1A2A"/>
<path d="M27.5078 45H19.8594V43.6953L23.6484 39.5625C24.1953 38.9531 24.5833 38.4453 24.8125 38.0391C25.0469 37.6276 25.1641 37.2161 25.1641 36.8047C25.1641 36.263 25.0104 35.8255 24.7031 35.4922C24.401 35.1589 23.9922 34.9922 23.4766 34.9922C22.862 34.9922 22.3854 35.1797 22.0469 35.5547C21.7083 35.9297 21.5391 36.4427 21.5391 37.0938H19.6406C19.6406 36.401 19.7969 35.7786 20.1094 35.2266C20.4271 34.6693 20.8776 34.237 21.4609 33.9297C22.0495 33.6224 22.7266 33.4688 23.4922 33.4688C24.5964 33.4688 25.4661 33.7474 26.1016 34.3047C26.7422 34.8568 27.0625 35.6224 27.0625 36.6016C27.0625 37.1693 26.901 37.7656 26.5781 38.3906C26.2604 39.0104 25.737 39.7161 25.0078 40.5078L22.2266 43.4844H27.5078V45ZM40.2188 45H38.3203V41.5859H35.0312V45H33.1328V36.5469H35.0312V40.0703H38.3203V36.5469H40.2188V45ZM41.8906 40.6953C41.8906 39.8672 42.0547 39.1224 42.3828 38.4609C42.7109 37.7943 43.1719 37.2839 43.7656 36.9297C44.3594 36.5703 45.0417 36.3906 45.8125 36.3906C46.9531 36.3906 47.8776 36.7578 48.5859 37.4922C49.2995 38.2266 49.6849 39.2005 49.7422 40.4141L49.75 40.8594C49.75 41.6927 49.5885 42.4375 49.2656 43.0938C48.9479 43.75 48.4896 44.2578 47.8906 44.6172C47.2969 44.9766 46.6094 45.1562 45.8281 45.1562C44.6354 45.1562 43.6797 44.7604 42.9609 43.9688C42.2474 43.1719 41.8906 42.112 41.8906 40.7891V40.6953ZM43.7891 40.8594C43.7891 41.7292 43.9688 42.4115 44.3281 42.9062C44.6875 43.3958 45.1875 43.6406 45.8281 43.6406C46.4688 43.6406 46.9661 43.3906 47.3203 42.8906C47.6797 42.3906 47.8594 41.6589 47.8594 40.6953C47.8594 39.8411 47.6745 39.1641 47.3047 38.6641C46.9401 38.1641 46.4427 37.9141 45.8125 37.9141C45.1927 37.9141 44.7005 38.1615 44.3359 38.6562C43.9714 39.1458 43.7891 39.8802 43.7891 40.8594ZM58.125 36.5469V45H56.2344V41.8984H54.4609L52.6562 45H50.6875L52.6797 41.5859C52.1589 41.3672 51.7578 41.0547 51.4766 40.6484C51.2005 40.2422 51.0625 39.776 51.0625 39.25C51.0625 38.4635 51.3646 37.8203 51.9688 37.3203C52.5781 36.8151 53.3984 36.5573 54.4297 36.5469H58.125ZM52.9609 39.2969C52.9609 39.651 53.0911 39.9401 53.3516 40.1641C53.6172 40.3828 53.9557 40.4922 54.3672 40.4922H56.2344V38.0547H54.4844C54.0208 38.0547 53.651 38.1719 53.375 38.4062C53.099 38.6406 52.9609 38.9375 52.9609 39.2969ZM64.2109 37.0156C65.2734 37.0156 66.125 37.3724 66.7656 38.0859C67.4062 38.7943 67.7266 39.7578 67.7266 40.9766V41.0703C67.7266 42.2891 67.3776 43.276 66.6797 44.0312C65.987 44.7865 65.0443 45.1641 63.8516 45.1641C62.6901 45.1641 61.7526 44.7786 61.0391 44.0078C60.3255 43.237 59.9688 42.1849 59.9688 40.8516V40.3047C59.9688 38.4818 60.2917 37.0391 60.9375 35.9766C61.5833 34.9141 62.5469 34.25 63.8281 33.9844C64.5469 33.8385 65.0104 33.6849 65.2188 33.5234C65.4323 33.3568 65.5391 33.1328 65.5391 32.8516H67.0703C67.0703 33.3776 66.9844 33.8047 66.8125 34.1328C66.6406 34.4609 66.3776 34.7292 66.0234 34.9375C65.6693 35.1406 65.0599 35.3333 64.1953 35.5156C63.4036 35.6823 62.7995 35.9792 62.3828 36.4062C61.9714 36.8333 61.6953 37.4245 61.5547 38.1797C62.3099 37.4036 63.1953 37.0156 64.2109 37.0156ZM63.8359 38.5391C63.2214 38.5391 62.7396 38.7474 62.3906 39.1641C62.0417 39.5755 61.8672 40.2109 61.8672 41.0703C61.8672 41.8828 62.0391 42.5156 62.3828 42.9688C62.7266 43.4219 63.2161 43.6484 63.8516 43.6484C64.4818 43.6484 64.9688 43.4219 65.3125 42.9688C65.6615 42.5104 65.8359 41.8229 65.8359 40.9062C65.8359 40.1771 65.6615 39.6016 65.3125 39.1797C64.9688 38.7526 64.4766 38.5391 63.8359 38.5391ZM76.4766 40.8594C76.4766 42.1667 76.1797 43.2109 75.5859 43.9922C74.9922 44.7682 74.1953 45.1562 73.1953 45.1562C72.2682 45.1562 71.526 44.8516 70.9688 44.2422V48.25H69.0703V36.5469H70.8203L70.8984 37.4062C71.4557 36.7292 72.2135 36.3906 73.1719 36.3906C74.2031 36.3906 75.0104 36.776 75.5938 37.5469C76.1823 38.3125 76.4766 39.3776 76.4766 40.7422V40.8594ZM74.5859 40.6953C74.5859 39.8516 74.4167 39.1823 74.0781 38.6875C73.7448 38.1927 73.2656 37.9453 72.6406 37.9453C71.8646 37.9453 71.3073 38.2656 70.9688 38.9062V42.6562C71.3125 43.3125 71.875 43.6406 72.6562 43.6406C73.2604 43.6406 73.7318 43.3984 74.0703 42.9141C74.4141 42.4245 74.5859 41.6849 74.5859 40.6953ZM84.8594 36.5469V45H82.9688V41.8984H81.1953L79.3906 45H77.4219L79.4141 41.5859C78.8932 41.3672 78.4922 41.0547 78.2109 40.6484C77.9349 40.2422 77.7969 39.776 77.7969 39.25C77.7969 38.4635 78.099 37.8203 78.7031 37.3203C79.3125 36.8151 80.1328 36.5573 81.1641 36.5469H84.8594ZM79.6953 39.2969C79.6953 39.651 79.8255 39.9401 80.0859 40.1641C80.3516 40.3828 80.6901 40.4922 81.1016 40.4922H82.9688V38.0547H81.2188C80.7552 38.0547 80.3854 38.1719 80.1094 38.4062C79.8333 38.6406 79.6953 38.9375 79.6953 39.2969Z" fill="white"/>
<circle cx="53.5" cy="4.5" r="4.5" fill="#0C1A2A"/>
</svg>
