<svg width="121" height="51" viewBox="0 0 121 51" fill="none" xmlns="http://www.w3.org/2000/svg">
<rect x="53" y="9" width="1" height="20" fill="#0C1A2A"/>
<rect y="29" width="121" height="22" rx="4" fill="#0C1A2A"/>
<path d="M22.0469 38.4453H23.2031C23.7865 38.4401 24.2474 38.2891 24.5859 37.9922C24.9297 37.6953 25.1016 37.2656 25.1016 36.7031C25.1016 36.1615 24.9583 35.7422 24.6719 35.4453C24.3906 35.1432 23.9583 34.9922 23.375 34.9922C22.8646 34.9922 22.4453 35.1406 22.1172 35.4375C21.7891 35.7292 21.625 36.112 21.625 36.5859H19.7266C19.7266 36.0026 19.8802 35.4714 20.1875 34.9922C20.5 34.513 20.9323 34.1406 21.4844 33.875C22.0417 33.6042 22.6641 33.4688 23.3516 33.4688C24.487 33.4688 25.3776 33.7552 26.0234 34.3281C26.6745 34.8958 27 35.6875 27 36.7031C27 37.2135 26.8359 37.6953 26.5078 38.1484C26.1849 38.5964 25.7656 38.9349 25.25 39.1641C25.875 39.3776 26.349 39.7135 26.6719 40.1719C27 40.6302 27.1641 41.1771 27.1641 41.8125C27.1641 42.8333 26.8125 43.6458 26.1094 44.25C25.4115 44.8542 24.4922 45.1562 23.3516 45.1562C22.2578 45.1562 21.362 44.8646 20.6641 44.2812C19.9661 43.6979 19.6172 42.9219 19.6172 41.9531H21.5156C21.5156 42.4531 21.6823 42.8594 22.0156 43.1719C22.3542 43.4844 22.8073 43.6406 23.375 43.6406C23.9635 43.6406 24.4271 43.4844 24.7656 43.1719C25.1042 42.8594 25.2734 42.4062 25.2734 41.8125C25.2734 41.2135 25.0964 40.7526 24.7422 40.4297C24.388 40.1068 23.862 39.9453 23.1641 39.9453H22.0469V38.4453ZM34.0859 45H32.1953V35.8672L29.4062 36.8203V35.2188L33.8438 33.5859H34.0859V45ZM41.7891 40.6953C41.7891 39.8672 41.9531 39.1224 42.2812 38.4609C42.6094 37.7943 43.0703 37.2839 43.6641 36.9297C44.2578 36.5703 44.9401 36.3906 45.7109 36.3906C46.8516 36.3906 47.776 36.7578 48.4844 37.4922C49.1979 38.2266 49.5833 39.2005 49.6406 40.4141L49.6484 40.8594C49.6484 41.6927 49.487 42.4375 49.1641 43.0938C48.8464 43.75 48.388 44.2578 47.7891 44.6172C47.1953 44.9766 46.5078 45.1562 45.7266 45.1562C44.5339 45.1562 43.5781 44.7604 42.8594 43.9688C42.1458 43.1719 41.7891 42.112 41.7891 40.7891V40.6953ZM43.6875 40.8594C43.6875 41.7292 43.8672 42.4115 44.2266 42.9062C44.5859 43.3958 45.0859 43.6406 45.7266 43.6406C46.3672 43.6406 46.8646 43.3906 47.2188 42.8906C47.5781 42.3906 47.7578 41.6589 47.7578 40.6953C47.7578 39.8411 47.5729 39.1641 47.2031 38.6641C46.8385 38.1641 46.3411 37.9141 45.7109 37.9141C45.0911 37.9141 44.599 38.1615 44.2344 38.6562C43.8698 39.1458 43.6875 39.8802 43.6875 40.8594ZM54.2578 41.6562H53.2969V45H51.3984V36.5469H53.2969V39.9219H54.1328L56.4688 36.5469H58.8125L55.7578 40.5938L59.0703 45H56.6016L54.2578 41.6562ZM66.7656 38.0547H64.0234V45H62.125V38.0547H59.4141V36.5469H66.7656V38.0547ZM74.8047 36.5469V45H72.9141V41.8984H71.1406L69.3359 45H67.3672L69.3594 41.5859C68.8385 41.3672 68.4375 41.0547 68.1562 40.6484C67.8802 40.2422 67.7422 39.776 67.7422 39.25C67.7422 38.4635 68.0443 37.8203 68.6484 37.3203C69.2578 36.8151 70.0781 36.5573 71.1094 36.5469H74.8047ZM69.6406 39.2969C69.6406 39.651 69.7708 39.9401 70.0312 40.1641C70.2969 40.3828 70.6354 40.4922 71.0469 40.4922H72.9141V38.0547H71.1641C70.7005 38.0547 70.3307 38.1719 70.0547 38.4062C69.7786 38.6406 69.6406 38.9375 69.6406 39.2969ZM80.8906 37.0156C81.9531 37.0156 82.8047 37.3724 83.4453 38.0859C84.0859 38.7943 84.4062 39.7578 84.4062 40.9766V41.0703C84.4062 42.2891 84.0573 43.276 83.3594 44.0312C82.6667 44.7865 81.724 45.1641 80.5312 45.1641C79.3698 45.1641 78.4323 44.7786 77.7188 44.0078C77.0052 43.237 76.6484 42.1849 76.6484 40.8516V40.3047C76.6484 38.4818 76.9714 37.0391 77.6172 35.9766C78.263 34.9141 79.2266 34.25 80.5078 33.9844C81.2266 33.8385 81.6901 33.6849 81.8984 33.5234C82.112 33.3568 82.2188 33.1328 82.2188 32.8516H83.75C83.75 33.3776 83.6641 33.8047 83.4922 34.1328C83.3203 34.4609 83.0573 34.7292 82.7031 34.9375C82.349 35.1406 81.7396 35.3333 80.875 35.5156C80.0833 35.6823 79.4792 35.9792 79.0625 36.4062C78.651 36.8333 78.375 37.4245 78.2344 38.1797C78.9896 37.4036 79.875 37.0156 80.8906 37.0156ZM80.5156 38.5391C79.901 38.5391 79.4193 38.7474 79.0703 39.1641C78.7214 39.5755 78.5469 40.2109 78.5469 41.0703C78.5469 41.8828 78.7188 42.5156 79.0625 42.9688C79.4062 43.4219 79.8958 43.6484 80.5312 43.6484C81.1615 43.6484 81.6484 43.4219 81.9922 42.9688C82.3411 42.5104 82.5156 41.8229 82.5156 40.9062C82.5156 40.1771 82.3411 39.6016 81.9922 39.1797C81.6484 38.7526 81.1562 38.5391 80.5156 38.5391ZM93.1562 40.8594C93.1562 42.1667 92.8594 43.2109 92.2656 43.9922C91.6719 44.7682 90.875 45.1562 89.875 45.1562C88.9479 45.1562 88.2057 44.8516 87.6484 44.2422V48.25H85.75V36.5469H87.5L87.5781 37.4062C88.1354 36.7292 88.8932 36.3906 89.8516 36.3906C90.8828 36.3906 91.6901 36.776 92.2734 37.5469C92.862 38.3125 93.1562 39.3776 93.1562 40.7422V40.8594ZM91.2656 40.6953C91.2656 39.8516 91.0964 39.1823 90.7578 38.6875C90.4245 38.1927 89.9453 37.9453 89.3203 37.9453C88.5443 37.9453 87.987 38.2656 87.6484 38.9062V42.6562C87.9922 43.3125 88.5547 43.6406 89.3359 43.6406C89.9401 43.6406 90.4115 43.3984 90.75 42.9141C91.0938 42.4245 91.2656 41.6849 91.2656 40.6953ZM101.539 36.5469V45H99.6484V41.8984H97.875L96.0703 45H94.1016L96.0938 41.5859C95.5729 41.3672 95.1719 41.0547 94.8906 40.6484C94.6146 40.2422 94.4766 39.776 94.4766 39.25C94.4766 38.4635 94.7786 37.8203 95.3828 37.3203C95.9922 36.8151 96.8125 36.5573 97.8438 36.5469H101.539ZM96.375 39.2969C96.375 39.651 96.5052 39.9401 96.7656 40.1641C97.0312 40.3828 97.3698 40.4922 97.7812 40.4922H99.6484V38.0547H97.8984C97.4349 38.0547 97.0651 38.1719 96.7891 38.4062C96.513 38.6406 96.375 38.9375 96.375 39.2969Z" fill="white"/>
<circle cx="53.5" cy="4.5" r="4.5" fill="#0C1A2A"/>
</svg>
