<svg width="106" height="51" viewBox="0 0 106 51" fill="none" xmlns="http://www.w3.org/2000/svg">
<rect x="53" y="9" width="1" height="20" fill="#0C1A2A"/>
<rect y="29" width="106" height="22" rx="4" fill="#0C1A2A"/>
<path d="M22.0469 38.4453H23.2031C23.7865 38.4401 24.2474 38.2891 24.5859 37.9922C24.9297 37.6953 25.1016 37.2656 25.1016 36.7031C25.1016 36.1615 24.9583 35.7422 24.6719 35.4453C24.3906 35.1432 23.9583 34.9922 23.375 34.9922C22.8646 34.9922 22.4453 35.1406 22.1172 35.4375C21.7891 35.7292 21.625 36.112 21.625 36.5859H19.7266C19.7266 36.0026 19.8802 35.4714 20.1875 34.9922C20.5 34.513 20.9323 34.1406 21.4844 33.875C22.0417 33.6042 22.6641 33.4688 23.3516 33.4688C24.487 33.4688 25.3776 33.7552 26.0234 34.3281C26.6745 34.8958 27 35.6875 27 36.7031C27 37.2135 26.8359 37.6953 26.5078 38.1484C26.1849 38.5964 25.7656 38.9349 25.25 39.1641C25.875 39.3776 26.349 39.7135 26.6719 40.1719C27 40.6302 27.1641 41.1771 27.1641 41.8125C27.1641 42.8333 26.8125 43.6458 26.1094 44.25C25.4115 44.8542 24.4922 45.1562 23.3516 45.1562C22.2578 45.1562 21.362 44.8646 20.6641 44.2812C19.9661 43.6979 19.6172 42.9219 19.6172 41.9531H21.5156C21.5156 42.4531 21.6823 42.8594 22.0156 43.1719C22.3542 43.4844 22.8073 43.6406 23.375 43.6406C23.9635 43.6406 24.4271 43.4844 24.7656 43.1719C25.1042 42.8594 25.2734 42.4062 25.2734 41.8125C25.2734 41.2135 25.0964 40.7526 24.7422 40.4297C24.388 40.1068 23.862 39.9453 23.1641 39.9453H22.0469V38.4453ZM40.2109 45H38.3125V41.5859H35.0234V45H33.125V36.5469H35.0234V40.0703H38.3125V36.5469H40.2109V45ZM41.8828 40.6953C41.8828 39.8672 42.0469 39.1224 42.375 38.4609C42.7031 37.7943 43.1641 37.2839 43.7578 36.9297C44.3516 36.5703 45.0339 36.3906 45.8047 36.3906C46.9453 36.3906 47.8698 36.7578 48.5781 37.4922C49.2917 38.2266 49.6771 39.2005 49.7344 40.4141L49.7422 40.8594C49.7422 41.6927 49.5807 42.4375 49.2578 43.0938C48.9401 43.75 48.4818 44.2578 47.8828 44.6172C47.2891 44.9766 46.6016 45.1562 45.8203 45.1562C44.6276 45.1562 43.6719 44.7604 42.9531 43.9688C42.2396 43.1719 41.8828 42.112 41.8828 40.7891V40.6953ZM43.7812 40.8594C43.7812 41.7292 43.9609 42.4115 44.3203 42.9062C44.6797 43.3958 45.1797 43.6406 45.8203 43.6406C46.4609 43.6406 46.9583 43.3906 47.3125 42.8906C47.6719 42.3906 47.8516 41.6589 47.8516 40.6953C47.8516 39.8411 47.6667 39.1641 47.2969 38.6641C46.9323 38.1641 46.4349 37.9141 45.8047 37.9141C45.1849 37.9141 44.6927 38.1615 44.3281 38.6562C43.9635 39.1458 43.7812 39.8802 43.7812 40.8594ZM58.1172 36.5469V45H56.2266V41.8984H54.4531L52.6484 45H50.6797L52.6719 41.5859C52.151 41.3672 51.75 41.0547 51.4688 40.6484C51.1927 40.2422 51.0547 39.776 51.0547 39.25C51.0547 38.4635 51.3568 37.8203 51.9609 37.3203C52.5703 36.8151 53.3906 36.5573 54.4219 36.5469H58.1172ZM52.9531 39.2969C52.9531 39.651 53.0833 39.9401 53.3438 40.1641C53.6094 40.3828 53.9479 40.4922 54.3594 40.4922H56.2266V38.0547H54.4766C54.013 38.0547 53.6432 38.1719 53.3672 38.4062C53.0911 38.6406 52.9531 38.9375 52.9531 39.2969ZM64.2031 37.0156C65.2656 37.0156 66.1172 37.3724 66.7578 38.0859C67.3984 38.7943 67.7188 39.7578 67.7188 40.9766V41.0703C67.7188 42.2891 67.3698 43.276 66.6719 44.0312C65.9792 44.7865 65.0365 45.1641 63.8438 45.1641C62.6823 45.1641 61.7448 44.7786 61.0312 44.0078C60.3177 43.237 59.9609 42.1849 59.9609 40.8516V40.3047C59.9609 38.4818 60.2839 37.0391 60.9297 35.9766C61.5755 34.9141 62.5391 34.25 63.8203 33.9844C64.5391 33.8385 65.0026 33.6849 65.2109 33.5234C65.4245 33.3568 65.5312 33.1328 65.5312 32.8516H67.0625C67.0625 33.3776 66.9766 33.8047 66.8047 34.1328C66.6328 34.4609 66.3698 34.7292 66.0156 34.9375C65.6615 35.1406 65.0521 35.3333 64.1875 35.5156C63.3958 35.6823 62.7917 35.9792 62.375 36.4062C61.9635 36.8333 61.6875 37.4245 61.5469 38.1797C62.3021 37.4036 63.1875 37.0156 64.2031 37.0156ZM63.8281 38.5391C63.2135 38.5391 62.7318 38.7474 62.3828 39.1641C62.0339 39.5755 61.8594 40.2109 61.8594 41.0703C61.8594 41.8828 62.0312 42.5156 62.375 42.9688C62.7188 43.4219 63.2083 43.6484 63.8438 43.6484C64.474 43.6484 64.9609 43.4219 65.3047 42.9688C65.6536 42.5104 65.8281 41.8229 65.8281 40.9062C65.8281 40.1771 65.6536 39.6016 65.3047 39.1797C64.9609 38.7526 64.4688 38.5391 63.8281 38.5391ZM76.4688 40.8594C76.4688 42.1667 76.1719 43.2109 75.5781 43.9922C74.9844 44.7682 74.1875 45.1562 73.1875 45.1562C72.2604 45.1562 71.5182 44.8516 70.9609 44.2422V48.25H69.0625V36.5469H70.8125L70.8906 37.4062C71.4479 36.7292 72.2057 36.3906 73.1641 36.3906C74.1953 36.3906 75.0026 36.776 75.5859 37.5469C76.1745 38.3125 76.4688 39.3776 76.4688 40.7422V40.8594ZM74.5781 40.6953C74.5781 39.8516 74.4089 39.1823 74.0703 38.6875C73.737 38.1927 73.2578 37.9453 72.6328 37.9453C71.8568 37.9453 71.2995 38.2656 70.9609 38.9062V42.6562C71.3047 43.3125 71.8672 43.6406 72.6484 43.6406C73.2526 43.6406 73.724 43.3984 74.0625 42.9141C74.4062 42.4245 74.5781 41.6849 74.5781 40.6953ZM84.8516 36.5469V45H82.9609V41.8984H81.1875L79.3828 45H77.4141L79.4062 41.5859C78.8854 41.3672 78.4844 41.0547 78.2031 40.6484C77.9271 40.2422 77.7891 39.776 77.7891 39.25C77.7891 38.4635 78.0911 37.8203 78.6953 37.3203C79.3047 36.8151 80.125 36.5573 81.1562 36.5469H84.8516ZM79.6875 39.2969C79.6875 39.651 79.8177 39.9401 80.0781 40.1641C80.3438 40.3828 80.6823 40.4922 81.0938 40.4922H82.9609V38.0547H81.2109C80.7474 38.0547 80.3776 38.1719 80.1016 38.4062C79.8255 38.6406 79.6875 38.9375 79.6875 39.2969Z" fill="white"/>
<circle cx="53.5" cy="4.5" r="4.5" fill="#0C1A2A"/>
</svg>
