<svg width="123" height="55" viewBox="0 0 123 55" fill="none" xmlns="http://www.w3.org/2000/svg">
<rect x="1" y="1" width="121" height="53" rx="5" stroke="#005BB9" stroke-width="2"/>
<path d="M41.4043 30.6895H35.8965L34.7441 34H32.1758L37.5469 19.7812H39.7637L45.1445 34H42.5664L41.4043 30.6895ZM36.5898 28.6973H40.7109L38.6504 22.7988L36.5898 28.6973ZM49.8223 29.8203H48.6211V34H46.248V23.4336H48.6211V27.6523H49.666L52.5859 23.4336H55.5156L51.6973 28.4922L55.8379 34H52.752L49.8223 29.8203ZM57.2344 23.4336H59.6074V32.1055H63.7285V23.4336H66.1016V32.1055H67.5371L67.3418 37.1348H65.1836V34H57.2344V23.4336ZM75.8086 23.4336H78.1719V34H75.8086V26.9492L71.668 34H69.3047V23.4336H71.668V30.4844L75.8086 23.4336ZM87.293 23.4336H89.6562V34H87.293V26.9492L83.1523 34H80.7891V23.4336H83.1523V30.4844L87.293 23.4336Z" fill="#005BB9"/>
</svg>
