<svg width="160" height="49" viewBox="0 0 160 49" fill="none" xmlns="http://www.w3.org/2000/svg">
<rect width="160" height="49" rx="6" fill="#005BB9"/>
<path d="M56.1562 30V18.625H60.0547C61.3411 18.625 62.3203 18.8828 62.9922 19.3984C63.6641 19.9141 64 20.6823 64 21.7031C64 22.224 63.8594 22.6927 63.5781 23.1094C63.2969 23.526 62.8854 23.849 62.3438 24.0781C62.9583 24.2448 63.4323 24.5599 63.7656 25.0234C64.1042 25.4818 64.2734 26.0339 64.2734 26.6797C64.2734 27.7474 63.9297 28.5677 63.2422 29.1406C62.5599 29.7135 61.5807 30 60.3047 30H56.1562ZM58.1328 24.8672V28.4219H60.3281C60.9479 28.4219 61.4323 28.2682 61.7812 27.9609C62.1302 27.6536 62.3047 27.2266 62.3047 26.6797C62.3047 25.4974 61.7005 24.8932 60.4922 24.8672H58.1328ZM58.1328 23.4141H60.0703C60.6849 23.4141 61.1641 23.276 61.5078 23C61.8568 22.7188 62.0312 22.3229 62.0312 21.8125C62.0312 21.25 61.8698 20.8438 61.5469 20.5938C61.2292 20.3438 60.7318 20.2188 60.0547 20.2188H58.1328V23.4141ZM73.0547 26.6562H72.0938V30H70.1953V21.5469H72.0938V24.9219H72.9297L75.2656 21.5469H77.6094L74.5547 25.5938L77.8672 30H75.3984L73.0547 26.6562ZM78.1016 25.6953C78.1016 24.8672 78.2656 24.1224 78.5938 23.4609C78.9219 22.7943 79.3828 22.2839 79.9766 21.9297C80.5703 21.5703 81.2526 21.3906 82.0234 21.3906C83.1641 21.3906 84.0885 21.7578 84.7969 22.4922C85.5104 23.2266 85.8958 24.2005 85.9531 25.4141L85.9609 25.8594C85.9609 26.6927 85.7995 27.4375 85.4766 28.0938C85.1589 28.75 84.7005 29.2578 84.1016 29.6172C83.5078 29.9766 82.8203 30.1562 82.0391 30.1562C80.8464 30.1562 79.8906 29.7604 79.1719 28.9688C78.4583 28.1719 78.1016 27.112 78.1016 25.7891V25.6953ZM80 25.8594C80 26.7292 80.1797 27.4115 80.5391 27.9062C80.8984 28.3958 81.3984 28.6406 82.0391 28.6406C82.6797 28.6406 83.1771 28.3906 83.5312 27.8906C83.8906 27.3906 84.0703 26.6589 84.0703 25.6953C84.0703 24.8411 83.8854 24.1641 83.5156 23.6641C83.151 23.1641 82.6536 22.9141 82.0234 22.9141C81.4036 22.9141 80.9115 23.1615 80.5469 23.6562C80.1823 24.1458 80 24.8802 80 25.8594ZM94.9688 25.8594C94.9688 27.1667 94.6719 28.2109 94.0781 28.9922C93.4844 29.7682 92.6875 30.1562 91.6875 30.1562C90.7604 30.1562 90.0182 29.8516 89.4609 29.2422V33.25H87.5625V21.5469H89.3125L89.3906 22.4062C89.9479 21.7292 90.7057 21.3906 91.6641 21.3906C92.6953 21.3906 93.5026 21.776 94.0859 22.5469C94.6745 23.3125 94.9688 24.3776 94.9688 25.7422V25.8594ZM93.0781 25.6953C93.0781 24.8516 92.9089 24.1823 92.5703 23.6875C92.237 23.1927 91.7578 22.9453 91.1328 22.9453C90.3568 22.9453 89.7995 23.2656 89.4609 23.9062V27.6562C89.8047 28.3125 90.3672 28.6406 91.1484 28.6406C91.7526 28.6406 92.224 28.3984 92.5625 27.9141C92.9062 27.4245 93.0781 26.6849 93.0781 25.6953ZM102.984 23.8594C102.984 24.2344 102.87 24.5807 102.641 24.8984C102.417 25.2109 102.099 25.4609 101.688 25.6484C102.656 25.987 103.141 26.6406 103.141 27.6094C103.141 28.3854 102.826 29.0052 102.195 29.4688C101.565 29.9271 100.721 30.1562 99.6641 30.1562C99.0182 30.1562 98.4297 30.0495 97.8984 29.8359C97.3672 29.6172 96.9531 29.3099 96.6562 28.9141C96.3594 28.513 96.2109 28.0391 96.2109 27.4922H98.1016C98.1016 27.8359 98.2552 28.125 98.5625 28.3594C98.8698 28.5885 99.2578 28.7031 99.7266 28.7031C100.19 28.7031 100.557 28.5964 100.828 28.3828C101.104 28.1641 101.242 27.8802 101.242 27.5312C101.242 27.1198 101.122 26.8229 100.883 26.6406C100.643 26.4583 100.273 26.3672 99.7734 26.3672H98.4141V25H99.8203C100.669 24.9896 101.094 24.6406 101.094 23.9531C101.094 23.6094 100.971 23.3411 100.727 23.1484C100.482 22.9557 100.146 22.8594 99.7188 22.8594C99.3021 22.8594 98.9505 22.9635 98.6641 23.1719C98.3776 23.375 98.2344 23.6328 98.2344 23.9453H96.3438C96.3438 23.2005 96.6562 22.5911 97.2812 22.1172C97.9062 21.638 98.7005 21.3984 99.6641 21.3984C100.711 21.3984 101.526 21.612 102.109 22.0391C102.693 22.4661 102.984 23.0729 102.984 23.8594ZM110.031 21.5469H111.922V30H110.031V24.3594L106.719 30H104.828V21.5469H106.719V27.1875L110.031 21.5469ZM121.102 30H119.203V26.5859H115.914V30H114.016V21.5469H115.914V25.0703H119.203V21.5469H121.102V30ZM126.086 27.2812L127.805 21.5469H129.828L126.469 31.2812C125.953 32.7031 125.078 33.4141 123.844 33.4141C123.568 33.4141 123.263 33.3672 122.93 33.2734V31.8047L123.289 31.8281C123.768 31.8281 124.128 31.7396 124.367 31.5625C124.612 31.3906 124.805 31.099 124.945 30.6875L125.219 29.9609L122.25 21.5469H124.297L126.086 27.2812Z" fill="white"/>
<g clip-path="url(#clip0_1:517)">
<path d="M36.4609 28.7073C35.2773 28.7073 34.3144 29.6702 34.3144 30.8537C34.3144 32.0373 35.2773 33.0002 36.4609 33.0002C37.6444 33.0002 38.6073 32.0373 38.6073 30.8537C38.6073 29.6702 37.6444 28.7073 36.4609 28.7073ZM36.4609 31.7123C35.9874 31.7123 35.6023 31.3272 35.6023 30.8537C35.6023 30.3802 35.9874 29.9952 36.4609 29.9952C36.9341 29.9952 37.3194 30.3802 37.3194 30.8537C37.3194 31.3272 36.9344 31.7123 36.4609 31.7123Z" fill="white"/>
<path d="M42.8145 28.7073C41.6309 28.7073 40.6681 29.6702 40.6681 30.8537C40.6681 32.0373 41.6309 33.0002 42.8145 33.0002C43.9981 33.0002 44.9609 32.0373 44.9609 30.8537C44.9609 29.6702 43.9981 28.7073 42.8145 28.7073ZM42.8145 31.7123C42.341 31.7123 41.9559 31.3272 41.9559 30.8537C41.9559 30.3802 42.341 29.9952 42.8145 29.9952C43.288 29.9952 43.6731 30.3802 43.6731 30.8537C43.6731 31.3272 43.288 31.7123 42.8145 31.7123Z" fill="white"/>
<path d="M46.538 20.1927C46.4156 20.039 46.2302 19.9495 46.034 19.9495H34.7588L34.1735 16.9913C34.1222 16.7322 33.9179 16.5307 33.6579 16.483L31.0822 16.0108C30.7317 15.9462 30.3969 16.1782 30.3327 16.5281C30.2685 16.878 30.5001 17.2134 30.85 17.2776L32.9951 17.6708L34.8848 27.2223C34.9445 27.5238 35.2092 27.7412 35.5165 27.7412H44.5315C44.8314 27.7412 45.0913 27.5346 45.1589 27.242L46.6614 20.7383C46.7056 20.5471 46.6601 20.3461 46.538 20.1927ZM44.0194 26.4534H36.0454L35.0136 21.2376H45.2242L44.0194 26.4534Z" fill="white"/>
</g>
<defs>
<clipPath id="clip0_1:517">
<rect width="17" height="17" fill="white" transform="translate(30 16)"/>
</clipPath>
</defs>
</svg>
