<svg width="164" height="53" viewBox="0 0 164 53" fill="none" xmlns="http://www.w3.org/2000/svg">
<rect width="164" height="53" rx="6" fill="#005BB9"/>
<path d="M69.3174 27.7705H67.7969V33H65.1602V20.2031H67.7969V25.3271H69.001L72.1299 20.2031H75.3467L71.4004 26.2588L75.7598 33H72.6133L69.3174 27.7705ZM82.123 33C82.0059 32.7715 81.9209 32.4873 81.8682 32.1475C81.2529 32.833 80.4531 33.1758 79.4688 33.1758C78.5371 33.1758 77.7637 32.9062 77.1484 32.3672C76.5391 31.8281 76.2344 31.1484 76.2344 30.3281C76.2344 29.3203 76.6064 28.5469 77.3506 28.0078C78.1006 27.4688 79.1816 27.1963 80.5938 27.1904H81.7627V26.6455C81.7627 26.2061 81.6484 25.8545 81.4199 25.5908C81.1973 25.3271 80.8428 25.1953 80.3564 25.1953C79.9287 25.1953 79.5918 25.2979 79.3457 25.5029C79.1055 25.708 78.9854 25.9893 78.9854 26.3467H76.4453C76.4453 25.7959 76.6152 25.2861 76.9551 24.8174C77.2949 24.3486 77.7754 23.9824 78.3965 23.7188C79.0176 23.4492 79.7148 23.3145 80.4883 23.3145C81.6602 23.3145 82.5889 23.6104 83.2744 24.2021C83.9658 24.7881 84.3115 25.6143 84.3115 26.6807V30.8027C84.3174 31.7051 84.4434 32.3877 84.6895 32.8506V33H82.123ZM80.0225 31.2334C80.3975 31.2334 80.7432 31.1514 81.0596 30.9873C81.376 30.8174 81.6104 30.5918 81.7627 30.3105V28.6758H80.8135C79.542 28.6758 78.8652 29.1152 78.7832 29.9941L78.7744 30.1436C78.7744 30.46 78.8857 30.7207 79.1084 30.9258C79.3311 31.1309 79.6357 31.2334 80.0225 31.2334ZM94.0146 25.5293H90.9648V33H88.416V25.5293H85.4189V23.4902H94.0146V25.5293ZM100.668 33C100.551 32.7715 100.466 32.4873 100.413 32.1475C99.7979 32.833 98.998 33.1758 98.0137 33.1758C97.082 33.1758 96.3086 32.9062 95.6934 32.3672C95.084 31.8281 94.7793 31.1484 94.7793 30.3281C94.7793 29.3203 95.1514 28.5469 95.8955 28.0078C96.6455 27.4688 97.7266 27.1963 99.1387 27.1904H100.308V26.6455C100.308 26.2061 100.193 25.8545 99.9648 25.5908C99.7422 25.3271 99.3877 25.1953 98.9014 25.1953C98.4736 25.1953 98.1367 25.2979 97.8906 25.5029C97.6504 25.708 97.5303 25.9893 97.5303 26.3467H94.9902C94.9902 25.7959 95.1602 25.2861 95.5 24.8174C95.8398 24.3486 96.3203 23.9824 96.9414 23.7188C97.5625 23.4492 98.2598 23.3145 99.0332 23.3145C100.205 23.3145 101.134 23.6104 101.819 24.2021C102.511 24.7881 102.856 25.6143 102.856 26.6807V30.8027C102.862 31.7051 102.988 32.3877 103.234 32.8506V33H100.668ZM98.5674 31.2334C98.9424 31.2334 99.2881 31.1514 99.6045 30.9873C99.9209 30.8174 100.155 30.5918 100.308 30.3105V28.6758H99.3584C98.0869 28.6758 97.4102 29.1152 97.3281 29.9941L97.3193 30.1436C97.3193 30.46 97.4307 30.7207 97.6533 30.9258C97.876 31.1309 98.1807 31.2334 98.5674 31.2334ZM113.078 23.4902V33H110.538V25.5469H108.297L108.139 28.4824C108.039 30.0469 107.731 31.1865 107.216 31.9014C106.7 32.6162 105.933 32.9824 104.913 33H104.052L104.025 30.9346L104.342 30.9082C104.799 30.873 105.133 30.6035 105.344 30.0996C105.555 29.5957 105.687 28.7373 105.739 27.5244L105.915 23.4902H113.078ZM114.643 28.1572C114.643 27.2139 114.824 26.373 115.188 25.6348C115.551 24.8965 116.072 24.3252 116.752 23.9209C117.438 23.5166 118.231 23.3145 119.134 23.3145C120.417 23.3145 121.463 23.707 122.271 24.4922C123.086 25.2773 123.54 26.3438 123.634 27.6914L123.651 28.3418C123.651 29.8008 123.244 30.9727 122.43 31.8574C121.615 32.7363 120.522 33.1758 119.151 33.1758C117.78 33.1758 116.685 32.7363 115.864 31.8574C115.05 30.9785 114.643 29.7832 114.643 28.2715V28.1572ZM117.183 28.3418C117.183 29.2441 117.353 29.9355 117.692 30.416C118.032 30.8906 118.519 31.1279 119.151 31.1279C119.767 31.1279 120.247 30.8936 120.593 30.4248C120.938 29.9502 121.111 29.1943 121.111 28.1572C121.111 27.2725 120.938 26.5869 120.593 26.1006C120.247 25.6143 119.761 25.3711 119.134 25.3711C118.513 25.3711 118.032 25.6143 117.692 26.1006C117.353 26.5811 117.183 27.3281 117.183 28.3418ZM131.693 25.5469H127.756V33H125.216V23.4902H131.693V25.5469Z" fill="white"/>
<rect x="32" y="20" width="20" height="3" fill="white"/>
<rect x="32" y="25" width="20" height="3" fill="white"/>
<rect x="32" y="30" width="20" height="3" fill="white"/>
</svg>
