<svg width="101" height="53" viewBox="0 0 101 53" fill="none" xmlns="http://www.w3.org/2000/svg">
<path d="M0 0H95C98.3137 0 101 2.68629 101 6V47C101 50.3137 98.3137 53 95 53H0V0Z" fill="#005BB9"/>
<path d="M38.9141 31H37.1914V26.5771H32.7412V31H31.0117V21.0469H32.7412V25.1895H37.1914V21.0469H38.9141V31ZM45.2236 31C45.1507 30.8587 45.0869 30.6286 45.0322 30.3096C44.5036 30.861 43.8564 31.1367 43.0908 31.1367C42.348 31.1367 41.7419 30.9248 41.2725 30.501C40.8031 30.0771 40.5684 29.5531 40.5684 28.9287C40.5684 28.1403 40.86 27.5365 41.4434 27.1172C42.0312 26.6934 42.8698 26.4814 43.959 26.4814H44.9775V25.9961C44.9775 25.6133 44.8704 25.3079 44.6562 25.0801C44.4421 24.8477 44.1162 24.7314 43.6787 24.7314C43.3005 24.7314 42.9906 24.8271 42.749 25.0186C42.5075 25.2054 42.3867 25.4447 42.3867 25.7363H40.7256C40.7256 25.3307 40.86 24.9525 41.1289 24.6016C41.3978 24.2461 41.7624 23.9681 42.2227 23.7676C42.6875 23.5671 43.2048 23.4668 43.7744 23.4668C44.6403 23.4668 45.3307 23.6855 45.8457 24.123C46.3607 24.556 46.625 25.1667 46.6387 25.9551V29.291C46.6387 29.9564 46.7321 30.4873 46.9189 30.8838V31H45.2236ZM43.3984 29.8037C43.7266 29.8037 44.0342 29.724 44.3213 29.5645C44.613 29.4049 44.8317 29.1908 44.9775 28.9219V27.5273H44.082C43.4668 27.5273 43.0042 27.6344 42.6943 27.8486C42.3844 28.0628 42.2295 28.3659 42.2295 28.7578C42.2295 29.0768 42.3343 29.332 42.5439 29.5234C42.7581 29.7103 43.043 29.8037 43.3984 29.8037ZM52.9961 23.6035H54.6504V31H52.9961V26.0645L50.0977 31H48.4434V23.6035H50.0977V28.5391L52.9961 23.6035ZM53.7754 20.7666C53.7754 21.3408 53.5749 21.8057 53.1738 22.1611C52.7728 22.5166 52.2373 22.6943 51.5674 22.6943C50.8975 22.6943 50.362 22.5166 49.9609 22.1611C49.5599 21.8057 49.3594 21.3408 49.3594 20.7666H50.6035C50.6035 21.0674 50.6878 21.3021 50.8564 21.4707C51.0296 21.6348 51.2666 21.7168 51.5674 21.7168C51.8682 21.7168 52.1029 21.6348 52.2715 21.4707C52.4401 21.3021 52.5244 21.0674 52.5244 20.7666H53.7754ZM62.2383 24.9229H59.8389V31H58.1777V24.9229H55.8057V23.6035H62.2383V24.9229ZM67.9668 23.6035H69.6211V31H67.9668V26.0645L65.0684 31H63.4141V23.6035H65.0684V28.5391L67.9668 23.6035Z" fill="white"/>
</svg>
