<svg width="86" height="26" viewBox="0 0 86 26" fill="none" xmlns="http://www.w3.org/2000/svg">
<rect width="86" height="26" rx="4" fill="#005BB9"/>
<path d="M23.8867 18H22.1641V9.44141H17.7822V18H16.0596V8.04688H23.8867V18ZM29.0752 18.1367C28.0225 18.1367 27.168 17.8063 26.5117 17.1455C25.86 16.4801 25.5342 15.596 25.5342 14.4932V14.2881C25.5342 13.5498 25.6755 12.8913 25.958 12.3125C26.2451 11.7292 26.6462 11.2757 27.1611 10.9521C27.6761 10.6286 28.2503 10.4668 28.8838 10.4668C29.891 10.4668 30.668 10.7881 31.2148 11.4307C31.7663 12.0732 32.042 12.9824 32.042 14.1582V14.8281H27.209C27.2591 15.4388 27.4619 15.9219 27.8174 16.2773C28.1774 16.6328 28.6286 16.8105 29.1709 16.8105C29.932 16.8105 30.5518 16.5029 31.0303 15.8877L31.9258 16.7422C31.6296 17.1842 31.2331 17.5283 30.7363 17.7744C30.2441 18.016 29.6904 18.1367 29.0752 18.1367ZM28.877 11.7998C28.4212 11.7998 28.0521 11.9593 27.7695 12.2783C27.4915 12.5973 27.3138 13.0417 27.2363 13.6113H30.4014V13.4883C30.3649 12.9323 30.2168 12.513 29.957 12.2305C29.6973 11.9434 29.3372 11.7998 28.877 11.7998ZM39.8145 14.377C39.8145 15.5208 39.5547 16.4346 39.0352 17.1182C38.5156 17.7972 37.8184 18.1367 36.9434 18.1367C36.1322 18.1367 35.4827 17.8701 34.9951 17.3369V20.8438H33.334V10.6035H34.8652L34.9336 11.3555C35.4212 10.763 36.0843 10.4668 36.9229 10.4668C37.8252 10.4668 38.5316 10.804 39.042 11.4785C39.557 12.1484 39.8145 13.0804 39.8145 14.2744V14.377ZM38.1602 14.2334C38.1602 13.4951 38.012 12.9095 37.7158 12.4766C37.4242 12.0436 37.0049 11.8271 36.458 11.8271C35.779 11.8271 35.2913 12.1074 34.9951 12.668V15.9492C35.2959 16.5234 35.7881 16.8105 36.4717 16.8105C37.0003 16.8105 37.4128 16.5986 37.709 16.1748C38.0098 15.7464 38.1602 15.0993 38.1602 14.2334ZM44.4834 18.1367C43.4307 18.1367 42.5762 17.8063 41.9199 17.1455C41.2682 16.4801 40.9424 15.596 40.9424 14.4932V14.2881C40.9424 13.5498 41.0837 12.8913 41.3662 12.3125C41.6533 11.7292 42.0544 11.2757 42.5693 10.9521C43.0843 10.6286 43.6585 10.4668 44.292 10.4668C45.2992 10.4668 46.0762 10.7881 46.623 11.4307C47.1745 12.0732 47.4502 12.9824 47.4502 14.1582V14.8281H42.6172C42.6673 15.4388 42.8701 15.9219 43.2256 16.2773C43.5856 16.6328 44.0368 16.8105 44.5791 16.8105C45.3402 16.8105 45.96 16.5029 46.4385 15.8877L47.334 16.7422C47.0378 17.1842 46.6413 17.5283 46.1445 17.7744C45.6523 18.016 45.0986 18.1367 44.4834 18.1367ZM44.2852 11.7998C43.8294 11.7998 43.4603 11.9593 43.1777 12.2783C42.8997 12.5973 42.722 13.0417 42.6445 13.6113H45.8096V13.4883C45.7731 12.9323 45.625 12.513 45.3652 12.2305C45.1055 11.9434 44.7454 11.7998 44.2852 11.7998ZM53.3633 10.6035H55.0176V18H53.3633V13.0645L50.4648 18H48.8105V10.6035H50.4648V15.5391L53.3633 10.6035ZM54.1426 7.7666C54.1426 8.34082 53.9421 8.80566 53.541 9.16113C53.14 9.5166 52.6045 9.69434 51.9346 9.69434C51.2646 9.69434 50.7292 9.5166 50.3281 9.16113C49.9271 8.80566 49.7266 8.34082 49.7266 7.7666H50.9707C50.9707 8.06738 51.055 8.30208 51.2236 8.4707C51.3968 8.63477 51.6338 8.7168 51.9346 8.7168C52.2354 8.7168 52.4701 8.63477 52.6387 8.4707C52.8073 8.30208 52.8916 8.06738 52.8916 7.7666H54.1426ZM62.6055 11.9229H60.2061V18H58.5449V11.9229H56.1729V10.6035H62.6055V11.9229ZM68.334 10.6035H69.9883V18H68.334V13.0645L65.4355 18H63.7812V10.6035H65.4355V15.5391L68.334 10.6035Z" fill="white"/>
</svg>
