<svg width="187" height="49" viewBox="0 0 187 49" fill="none" xmlns="http://www.w3.org/2000/svg">
<rect x="1" y="1" width="185" height="47" rx="5" fill="white" stroke="#005BB9" stroke-width="2"/>
<path d="M50.1562 30H48.1875V20.2188H43.1797V30H41.2109V18.625H50.1562V30ZM52.0078 25.6953C52.0078 24.8672 52.1719 24.1224 52.5 23.4609C52.8281 22.7943 53.2891 22.2839 53.8828 21.9297C54.4766 21.5703 55.1589 21.3906 55.9297 21.3906C57.0703 21.3906 57.9948 21.7578 58.7031 22.4922C59.4167 23.2266 59.8021 24.2005 59.8594 25.4141L59.8672 25.8594C59.8672 26.6927 59.7057 27.4375 59.3828 28.0938C59.0651 28.75 58.6068 29.2578 58.0078 29.6172C57.4141 29.9766 56.7266 30.1562 55.9453 30.1562C54.7526 30.1562 53.7969 29.7604 53.0781 28.9688C52.3646 28.1719 52.0078 27.112 52.0078 25.7891V25.6953ZM53.9062 25.8594C53.9062 26.7292 54.0859 27.4115 54.4453 27.9062C54.8047 28.3958 55.3047 28.6406 55.9453 28.6406C56.5859 28.6406 57.0833 28.3906 57.4375 27.8906C57.7969 27.3906 57.9766 26.6589 57.9766 25.6953C57.9766 24.8411 57.7917 24.1641 57.4219 23.6641C57.0573 23.1641 56.5599 22.9141 55.9297 22.9141C55.3099 22.9141 54.8177 23.1615 54.4531 23.6562C54.0885 24.1458 53.9062 24.8802 53.9062 25.8594ZM64.4766 26.6562H63.5156V30H61.6172V21.5469H63.5156V24.9219H64.3516L66.6875 21.5469H69.0312L65.9766 25.5938L69.2891 30H66.8203L64.4766 26.6562ZM75.3828 30C75.2995 29.8385 75.2266 29.5755 75.1641 29.2109C74.5599 29.8411 73.8203 30.1562 72.9453 30.1562C72.0964 30.1562 71.4036 29.9141 70.8672 29.4297C70.3307 28.9453 70.0625 28.3464 70.0625 27.6328C70.0625 26.7318 70.3958 26.0417 71.0625 25.5625C71.7344 25.0781 72.6927 24.8359 73.9375 24.8359H75.1016V24.2812C75.1016 23.8438 74.9792 23.4948 74.7344 23.2344C74.4896 22.9688 74.1172 22.8359 73.6172 22.8359C73.1849 22.8359 72.8307 22.9453 72.5547 23.1641C72.2786 23.3776 72.1406 23.651 72.1406 23.9844H70.2422C70.2422 23.5208 70.3958 23.0885 70.7031 22.6875C71.0104 22.2812 71.4271 21.9635 71.9531 21.7344C72.4844 21.5052 73.0755 21.3906 73.7266 21.3906C74.7161 21.3906 75.5052 21.6406 76.0938 22.1406C76.6823 22.6354 76.9844 23.3333 77 24.2344V28.0469C77 28.8073 77.1068 29.4141 77.3203 29.8672V30H75.3828ZM73.2969 28.6328C73.6719 28.6328 74.0234 28.5417 74.3516 28.3594C74.6849 28.1771 74.9349 27.9323 75.1016 27.625V26.0312H74.0781C73.375 26.0312 72.8464 26.1536 72.4922 26.3984C72.138 26.6432 71.9609 26.9896 71.9609 27.4375C71.9609 27.8021 72.0807 28.0938 72.3203 28.3125C72.5651 28.526 72.8906 28.6328 73.2969 28.6328ZM85.3906 23.8594C85.3906 24.2344 85.276 24.5807 85.0469 24.8984C84.8229 25.2109 84.5052 25.4609 84.0938 25.6484C85.0625 25.987 85.5469 26.6406 85.5469 27.6094C85.5469 28.3854 85.2318 29.0052 84.6016 29.4688C83.9714 29.9271 83.1276 30.1562 82.0703 30.1562C81.4245 30.1562 80.8359 30.0495 80.3047 29.8359C79.7734 29.6172 79.3594 29.3099 79.0625 28.9141C78.7656 28.513 78.6172 28.0391 78.6172 27.4922H80.5078C80.5078 27.8359 80.6615 28.125 80.9688 28.3594C81.276 28.5885 81.6641 28.7031 82.1328 28.7031C82.5964 28.7031 82.9635 28.5964 83.2344 28.3828C83.5104 28.1641 83.6484 27.8802 83.6484 27.5312C83.6484 27.1198 83.5286 26.8229 83.2891 26.6406C83.0495 26.4583 82.6797 26.3672 82.1797 26.3672H80.8203V25H82.2266C83.0755 24.9896 83.5 24.6406 83.5 23.9531C83.5 23.6094 83.3776 23.3411 83.1328 23.1484C82.888 22.9557 82.5521 22.8594 82.125 22.8594C81.7083 22.8594 81.3568 22.9635 81.0703 23.1719C80.7839 23.375 80.6406 23.6328 80.6406 23.9453H78.75C78.75 23.2005 79.0625 22.5911 79.6875 22.1172C80.3125 21.638 81.1068 21.3984 82.0703 21.3984C83.1172 21.3984 83.9323 21.612 84.5156 22.0391C85.099 22.4661 85.3906 23.0729 85.3906 23.8594ZM92.2109 30C92.1276 29.8385 92.0547 29.5755 91.9922 29.2109C91.388 29.8411 90.6484 30.1562 89.7734 30.1562C88.9245 30.1562 88.2318 29.9141 87.6953 29.4297C87.1589 28.9453 86.8906 28.3464 86.8906 27.6328C86.8906 26.7318 87.224 26.0417 87.8906 25.5625C88.5625 25.0781 89.5208 24.8359 90.7656 24.8359H91.9297V24.2812C91.9297 23.8438 91.8073 23.4948 91.5625 23.2344C91.3177 22.9688 90.9453 22.8359 90.4453 22.8359C90.013 22.8359 89.6589 22.9453 89.3828 23.1641C89.1068 23.3776 88.9688 23.651 88.9688 23.9844H87.0703C87.0703 23.5208 87.224 23.0885 87.5312 22.6875C87.8385 22.2812 88.2552 21.9635 88.7812 21.7344C89.3125 21.5052 89.9036 21.3906 90.5547 21.3906C91.5443 21.3906 92.3333 21.6406 92.9219 22.1406C93.5104 22.6354 93.8125 23.3333 93.8281 24.2344V28.0469C93.8281 28.8073 93.9349 29.4141 94.1484 29.8672V30H92.2109ZM90.125 28.6328C90.5 28.6328 90.8516 28.5417 91.1797 28.3594C91.513 28.1771 91.763 27.9323 91.9297 27.625V26.0312H90.9062C90.2031 26.0312 89.6745 26.1536 89.3203 26.3984C88.9661 26.6432 88.7891 26.9896 88.7891 27.4375C88.7891 27.8021 88.9089 28.0938 89.1484 28.3125C89.3932 28.526 89.7188 28.6328 90.125 28.6328ZM102.344 23.0547H99.6016V30H97.7031V23.0547H94.9922V21.5469H102.344V23.0547ZM105.656 24.2344H107.516C108.208 24.2344 108.812 24.3542 109.328 24.5938C109.844 24.8333 110.234 25.1693 110.5 25.6016C110.771 26.0339 110.906 26.5365 110.906 27.1094C110.906 27.9792 110.599 28.6771 109.984 29.2031C109.37 29.7292 108.552 29.9948 107.531 30H103.758V21.5469H105.656V24.2344ZM105.656 25.7578V28.4844H107.508C107.971 28.4844 108.336 28.3698 108.602 28.1406C108.872 27.9062 109.008 27.5755 109.008 27.1484C109.008 26.7214 108.875 26.3854 108.609 26.1406C108.349 25.8906 107.995 25.763 107.547 25.7578H105.656ZM120.133 30.1562C118.93 30.1562 117.953 29.7786 117.203 29.0234C116.458 28.263 116.086 27.2526 116.086 25.9922V25.7578C116.086 24.9141 116.247 24.1615 116.57 23.5C116.898 22.8333 117.357 22.3151 117.945 21.9453C118.534 21.5755 119.19 21.3906 119.914 21.3906C121.065 21.3906 121.953 21.7578 122.578 22.4922C123.208 23.2266 123.523 24.2656 123.523 25.6094V26.375H118C118.057 27.0729 118.289 27.625 118.695 28.0312C119.107 28.4375 119.622 28.6406 120.242 28.6406C121.112 28.6406 121.82 28.2891 122.367 27.5859L123.391 28.5625C123.052 29.0677 122.599 29.4609 122.031 29.7422C121.469 30.0182 120.836 30.1562 120.133 30.1562ZM119.906 22.9141C119.385 22.9141 118.964 23.0964 118.641 23.4609C118.323 23.8255 118.12 24.3333 118.031 24.9844H121.648V24.8438C121.607 24.2083 121.438 23.7292 121.141 23.4062C120.844 23.0781 120.432 22.9141 119.906 22.9141ZM126.914 21.5469V28.4844H129.555V21.5469H131.453V28.4844H134.102V21.5469H135.992V28.4844H137.438L137.281 32.5078H135.555V30H125.016V21.5469H126.914ZM142.43 30.1562C141.227 30.1562 140.25 29.7786 139.5 29.0234C138.755 28.263 138.383 27.2526 138.383 25.9922V25.7578C138.383 24.9141 138.544 24.1615 138.867 23.5C139.195 22.8333 139.654 22.3151 140.242 21.9453C140.831 21.5755 141.487 21.3906 142.211 21.3906C143.362 21.3906 144.25 21.7578 144.875 22.4922C145.505 23.2266 145.82 24.2656 145.82 25.6094V26.375H140.297C140.354 27.0729 140.586 27.625 140.992 28.0312C141.404 28.4375 141.919 28.6406 142.539 28.6406C143.409 28.6406 144.117 28.2891 144.664 27.5859L145.688 28.5625C145.349 29.0677 144.896 29.4609 144.328 29.7422C143.766 30.0182 143.133 30.1562 142.43 30.1562ZM142.203 22.9141C141.682 22.9141 141.26 23.0964 140.938 23.4609C140.62 23.8255 140.417 24.3333 140.328 24.9844H143.945V24.8438C143.904 24.2083 143.734 23.7292 143.438 23.4062C143.141 23.0781 142.729 22.9141 142.203 22.9141Z" fill="#005BB9"/>
</svg>
