<svg width="241" height="55" viewBox="0 0 241 55" fill="none" xmlns="http://www.w3.org/2000/svg">
<rect width="241" height="55" rx="6" fill="#005BB9"/>
<path d="M44.6953 34H42.2344V21.7734H35.9746V34H33.5137V19.7812H44.6953V34ZM47.0098 28.6191C47.0098 27.584 47.2148 26.653 47.625 25.8262C48.0352 24.9928 48.6113 24.3548 49.3535 23.9121C50.0957 23.4629 50.9486 23.2383 51.9121 23.2383C53.3379 23.2383 54.4935 23.6973 55.3789 24.6152C56.2708 25.5332 56.7526 26.7507 56.8242 28.2676L56.834 28.8242C56.834 29.8659 56.6322 30.7969 56.2285 31.6172C55.8314 32.4375 55.2585 33.0723 54.5098 33.5215C53.7676 33.9707 52.9082 34.1953 51.9316 34.1953C50.4408 34.1953 49.2461 33.7005 48.3477 32.7109C47.4557 31.7148 47.0098 30.39 47.0098 28.7363V28.6191ZM49.3828 28.8242C49.3828 29.9115 49.6074 30.7643 50.0566 31.3828C50.5059 31.9948 51.1309 32.3008 51.9316 32.3008C52.7324 32.3008 53.3542 31.9883 53.7969 31.3633C54.2461 30.7383 54.4707 29.8236 54.4707 28.6191C54.4707 27.5514 54.2396 26.7051 53.7773 26.0801C53.3216 25.4551 52.6999 25.1426 51.9121 25.1426C51.1374 25.1426 50.5221 25.4518 50.0664 26.0703C49.6107 26.6823 49.3828 27.6003 49.3828 28.8242ZM58.1816 32.1055C58.8392 31.3698 59.2786 30.6732 59.5 30.0156C59.7279 29.3516 59.8646 28.5052 59.9102 27.4766L60.0469 23.4336H67.3809V32.1055H68.8457V37.1445H66.4824V34H59.7051V37.1445H57.3027L57.3125 32.1055H58.1816ZM60.9648 32.1055H65.0176V25.4746H62.3516L62.2832 27.4961C62.1921 29.4362 61.7526 30.9727 60.9648 32.1055ZM75.5156 24.0195C76.8438 24.0195 77.9082 24.4655 78.709 25.3574C79.5098 26.2428 79.9102 27.4473 79.9102 28.9707V29.0879C79.9102 30.6113 79.474 31.8451 78.6016 32.7891C77.7357 33.7331 76.5573 34.2051 75.0664 34.2051C73.6146 34.2051 72.4427 33.7233 71.5508 32.7598C70.6589 31.7962 70.2129 30.4811 70.2129 28.8145V28.1309C70.2129 25.8522 70.6165 24.0488 71.4238 22.7207C72.2311 21.3926 73.4355 20.5625 75.0371 20.2305C75.9355 20.0482 76.515 19.8561 76.7754 19.6543C77.0423 19.446 77.1758 19.166 77.1758 18.8145H79.0898C79.0898 19.472 78.9824 20.0059 78.7676 20.416C78.5527 20.8262 78.224 21.1615 77.7812 21.4219C77.3385 21.6758 76.5768 21.9167 75.4961 22.1445C74.5065 22.3529 73.7513 22.724 73.2305 23.2578C72.7161 23.7917 72.3711 24.5306 72.1953 25.4746C73.1393 24.5046 74.2461 24.0195 75.5156 24.0195ZM75.0469 25.9238C74.2786 25.9238 73.6764 26.1842 73.2402 26.7051C72.804 27.2194 72.5859 28.0137 72.5859 29.0879C72.5859 30.1035 72.8008 30.8945 73.2305 31.4609C73.6602 32.0273 74.2721 32.3105 75.0664 32.3105C75.8542 32.3105 76.4629 32.0273 76.8926 31.4609C77.3288 30.888 77.5469 30.0286 77.5469 28.8828C77.5469 27.9714 77.3288 27.252 76.8926 26.7246C76.4629 26.1908 75.8477 25.9238 75.0469 25.9238ZM81.3262 28.6191C81.3262 27.584 81.5312 26.653 81.9414 25.8262C82.3516 24.9928 82.9277 24.3548 83.6699 23.9121C84.4121 23.4629 85.265 23.2383 86.2285 23.2383C87.6543 23.2383 88.8099 23.6973 89.6953 24.6152C90.5872 25.5332 91.069 26.7507 91.1406 28.2676L91.1504 28.8242C91.1504 29.8659 90.9486 30.7969 90.5449 31.6172C90.1478 32.4375 89.5749 33.0723 88.8262 33.5215C88.084 33.9707 87.2246 34.1953 86.248 34.1953C84.7572 34.1953 83.5625 33.7005 82.6641 32.7109C81.7721 31.7148 81.3262 30.39 81.3262 28.7363V28.6191ZM83.6992 28.8242C83.6992 29.9115 83.9238 30.7643 84.373 31.3828C84.8223 31.9948 85.4473 32.3008 86.248 32.3008C87.0488 32.3008 87.6706 31.9883 88.1133 31.3633C88.5625 30.7383 88.7871 29.8236 88.7871 28.6191C88.7871 27.5514 88.556 26.7051 88.0938 26.0801C87.638 25.4551 87.0163 25.1426 86.2285 25.1426C85.4538 25.1426 84.8385 25.4518 84.3828 26.0703C83.9271 26.6823 83.6992 27.6003 83.6992 28.8242ZM102.41 28.8242C102.41 30.4583 102.039 31.7637 101.297 32.7402C100.555 33.7103 99.5586 34.1953 98.3086 34.1953C97.1497 34.1953 96.222 33.8145 95.5254 33.0527V38.0625H93.1523V23.4336H95.3398L95.4375 24.5078C96.1341 23.6615 97.0814 23.2383 98.2793 23.2383C99.5684 23.2383 100.577 23.7201 101.307 24.6836C102.042 25.6406 102.41 26.972 102.41 28.6777V28.8242ZM100.047 28.6191C100.047 27.5645 99.8353 26.7279 99.4121 26.1094C98.9954 25.4909 98.3965 25.1816 97.6152 25.1816C96.6452 25.1816 95.9486 25.582 95.5254 26.3828V31.0703C95.9551 31.8906 96.6582 32.3008 97.6348 32.3008C98.39 32.3008 98.9792 31.998 99.4023 31.3926C99.832 30.7806 100.047 29.8561 100.047 28.6191ZM108.182 29.8203H106.98V34H104.607V23.4336H106.98V27.6523H108.025L110.945 23.4336H113.875L110.057 28.4922L114.197 34H111.111L108.182 29.8203ZM122.098 23.4336H124.461V34H122.098V26.9492L117.957 34H115.594V23.4336H117.957V30.4844L122.098 23.4336ZM140.281 25.3184H136.854V34H134.48V25.3184H131.092V23.4336H140.281V25.3184ZM141.131 28.6191C141.131 27.584 141.336 26.653 141.746 25.8262C142.156 24.9928 142.732 24.3548 143.475 23.9121C144.217 23.4629 145.07 23.2383 146.033 23.2383C147.459 23.2383 148.615 23.6973 149.5 24.6152C150.392 25.5332 150.874 26.7507 150.945 28.2676L150.955 28.8242C150.955 29.8659 150.753 30.7969 150.35 31.6172C149.952 32.4375 149.38 33.0723 148.631 33.5215C147.889 33.9707 147.029 34.1953 146.053 34.1953C144.562 34.1953 143.367 33.7005 142.469 32.7109C141.577 31.7148 141.131 30.39 141.131 28.7363V28.6191ZM143.504 28.8242C143.504 29.9115 143.729 30.7643 144.178 31.3828C144.627 31.9948 145.252 32.3008 146.053 32.3008C146.854 32.3008 147.475 31.9883 147.918 31.3633C148.367 30.7383 148.592 29.8236 148.592 28.6191C148.592 27.5514 148.361 26.7051 147.898 26.0801C147.443 25.4551 146.821 25.1426 146.033 25.1426C145.258 25.1426 144.643 25.4518 144.188 26.0703C143.732 26.6823 143.504 27.6003 143.504 28.8242ZM153.143 34V23.4336H157.43C158.875 23.4336 159.975 23.6875 160.73 24.1953C161.486 24.6966 161.863 25.4193 161.863 26.3633C161.863 26.8516 161.71 27.291 161.404 27.6816C161.105 28.0658 160.659 28.362 160.066 28.5703C160.757 28.7135 161.303 29.0033 161.707 29.4395C162.111 29.8757 162.312 30.39 162.312 30.9824C162.312 31.9655 161.948 32.7142 161.219 33.2285C160.496 33.7428 159.454 34 158.094 34H153.143ZM155.516 29.498V32.125H158.113C159.331 32.125 159.939 31.6888 159.939 30.8164C159.939 29.9375 159.321 29.498 158.084 29.498H155.516ZM155.516 27.7988H157.469C158.816 27.7988 159.49 27.4017 159.49 26.6074C159.49 25.7741 158.852 25.3444 157.576 25.3184H155.516V27.7988ZM170.682 34C170.577 33.7982 170.486 33.4694 170.408 33.0137C169.653 33.8014 168.729 34.1953 167.635 34.1953C166.574 34.1953 165.708 33.8926 165.037 33.2871C164.367 32.6816 164.031 31.9329 164.031 31.041C164.031 29.9147 164.448 29.0521 165.281 28.4531C166.121 27.8477 167.319 27.5449 168.875 27.5449H170.33V26.8516C170.33 26.3047 170.177 25.8685 169.871 25.543C169.565 25.2109 169.1 25.0449 168.475 25.0449C167.934 25.0449 167.492 25.1816 167.146 25.4551C166.801 25.722 166.629 26.0638 166.629 26.4805H164.256C164.256 25.901 164.448 25.3607 164.832 24.8594C165.216 24.3516 165.737 23.9544 166.395 23.668C167.059 23.3815 167.798 23.2383 168.611 23.2383C169.848 23.2383 170.835 23.5508 171.57 24.1758C172.306 24.7943 172.684 25.6667 172.703 26.793V31.5586C172.703 32.5091 172.837 33.2676 173.104 33.834V34H170.682ZM168.074 32.291C168.543 32.291 168.982 32.1771 169.393 31.9492C169.809 31.7214 170.122 31.4154 170.33 31.0312V29.0391H169.051C168.172 29.0391 167.511 29.1921 167.068 29.498C166.626 29.804 166.404 30.237 166.404 30.7969C166.404 31.2526 166.554 31.6172 166.854 31.8906C167.16 32.1576 167.566 32.291 168.074 32.291ZM184.441 28.8242C184.441 30.4583 184.07 31.7637 183.328 32.7402C182.586 33.7103 181.59 34.1953 180.34 34.1953C179.181 34.1953 178.253 33.8145 177.557 33.0527V38.0625H175.184V23.4336H177.371L177.469 24.5078C178.165 23.6615 179.113 23.2383 180.311 23.2383C181.6 23.2383 182.609 23.7201 183.338 24.6836C184.074 25.6406 184.441 26.972 184.441 28.6777V28.8242ZM182.078 28.6191C182.078 27.5645 181.867 26.7279 181.443 26.1094C181.027 25.4909 180.428 25.1816 179.646 25.1816C178.676 25.1816 177.98 25.582 177.557 26.3828V31.0703C177.986 31.8906 178.689 32.3008 179.666 32.3008C180.421 32.3008 181.01 31.998 181.434 31.3926C181.863 30.7806 182.078 29.8561 182.078 28.6191ZM186.014 28.6191C186.014 27.584 186.219 26.653 186.629 25.8262C187.039 24.9928 187.615 24.3548 188.357 23.9121C189.1 23.4629 189.952 23.2383 190.916 23.2383C192.342 23.2383 193.497 23.6973 194.383 24.6152C195.275 25.5332 195.757 26.7507 195.828 28.2676L195.838 28.8242C195.838 29.8659 195.636 30.7969 195.232 31.6172C194.835 32.4375 194.262 33.0723 193.514 33.5215C192.771 33.9707 191.912 34.1953 190.936 34.1953C189.445 34.1953 188.25 33.7005 187.352 32.7109C186.46 31.7148 186.014 30.39 186.014 28.7363V28.6191ZM188.387 28.8242C188.387 29.9115 188.611 30.7643 189.061 31.3828C189.51 31.9948 190.135 32.3008 190.936 32.3008C191.736 32.3008 192.358 31.9883 192.801 31.3633C193.25 30.7383 193.475 29.8236 193.475 28.6191C193.475 27.5514 193.243 26.7051 192.781 26.0801C192.326 25.4551 191.704 25.1426 190.916 25.1426C190.141 25.1426 189.526 25.4518 189.07 26.0703C188.615 26.6823 188.387 27.6003 188.387 28.8242ZM198.025 34V23.4336H202.312C203.758 23.4336 204.858 23.6875 205.613 24.1953C206.368 24.6966 206.746 25.4193 206.746 26.3633C206.746 26.8516 206.593 27.291 206.287 27.6816C205.988 28.0658 205.542 28.362 204.949 28.5703C205.639 28.7135 206.186 29.0033 206.59 29.4395C206.993 29.8757 207.195 30.39 207.195 30.9824C207.195 31.9655 206.831 32.7142 206.102 33.2285C205.379 33.7428 204.337 34 202.977 34H198.025ZM200.398 29.498V32.125H202.996C204.214 32.125 204.822 31.6888 204.822 30.8164C204.822 29.9375 204.204 29.498 202.967 29.498H200.398ZM200.398 27.7988H202.352C203.699 27.7988 204.373 27.4017 204.373 26.6074C204.373 25.7741 203.735 25.3444 202.459 25.3184H200.398V27.7988Z" fill="white"/>
</svg>
