<svg width="229" height="55" viewBox="0 0 229 55" fill="none" xmlns="http://www.w3.org/2000/svg">
<rect x="1" y="1" width="227" height="53" rx="5" stroke="#005BB9" stroke-width="2"/>
<path d="M44.2949 29.3711C44.1517 30.888 43.5918 32.0729 42.6152 32.9258C41.6387 33.7721 40.3398 34.1953 38.7188 34.1953C37.5859 34.1953 36.5866 33.9284 35.7207 33.3945C34.8613 32.8542 34.1973 32.0892 33.7285 31.0996C33.2598 30.11 33.0156 28.9609 32.9961 27.6523V26.3242C32.9961 24.9831 33.2337 23.8014 33.709 22.7793C34.1842 21.7572 34.8646 20.9694 35.75 20.416C36.6419 19.8626 37.6706 19.5859 38.8359 19.5859C40.4049 19.5859 41.668 20.0124 42.625 20.8652C43.582 21.7181 44.1387 22.9225 44.2949 24.4785H41.834C41.7168 23.4564 41.4173 22.7207 40.9355 22.2715C40.4603 21.8158 39.7604 21.5879 38.8359 21.5879C37.7617 21.5879 36.9349 21.9818 36.3555 22.7695C35.7826 23.5508 35.4896 24.6999 35.4766 26.2168V27.4766C35.4766 29.013 35.75 30.1849 36.2969 30.9922C36.8503 31.7995 37.6576 32.2031 38.7188 32.2031C39.6888 32.2031 40.418 31.985 40.9062 31.5488C41.3945 31.1126 41.7038 30.3867 41.834 29.3711H44.2949ZM50.9355 34.1953C49.4316 34.1953 48.2109 33.7233 47.2734 32.7793C46.3424 31.8288 45.877 30.5658 45.877 28.9902V28.6973C45.877 27.6426 46.0788 26.7018 46.4824 25.875C46.8926 25.0417 47.4655 24.3939 48.2012 23.9316C48.9368 23.4694 49.7572 23.2383 50.6621 23.2383C52.1009 23.2383 53.2109 23.6973 53.9922 24.6152C54.7799 25.5332 55.1738 26.832 55.1738 28.5117V29.4688H48.2695C48.3411 30.3411 48.6309 31.0312 49.1387 31.5391C49.653 32.0469 50.2975 32.3008 51.0723 32.3008C52.1595 32.3008 53.0449 31.8613 53.7285 30.9824L55.0078 32.2031C54.5846 32.8346 54.0182 33.3262 53.3086 33.6777C52.6055 34.0228 51.8145 34.1953 50.9355 34.1953ZM50.6523 25.1426C50.0013 25.1426 49.474 25.3704 49.0703 25.8262C48.6732 26.2819 48.4193 26.9167 48.3086 27.7305H52.8301V27.5547C52.778 26.7604 52.5664 26.1615 52.1953 25.7578C51.8242 25.3477 51.3099 25.1426 50.6523 25.1426ZM63.6211 23.4336H65.9844V34H63.6211V26.9492L59.4805 34H57.1172V23.4336H59.4805V30.4844L63.6211 23.4336ZM64.7344 19.3809C64.7344 20.2012 64.4479 20.8652 63.875 21.373C63.3021 21.8809 62.5371 22.1348 61.5801 22.1348C60.623 22.1348 59.8581 21.8809 59.2852 21.373C58.7122 20.8652 58.4258 20.2012 58.4258 19.3809H60.2031C60.2031 19.8105 60.3236 20.1458 60.5645 20.3867C60.8118 20.6211 61.1504 20.7383 61.5801 20.7383C62.0098 20.7383 62.3451 20.6211 62.5859 20.3867C62.8268 20.1458 62.9473 19.8105 62.9473 19.3809H64.7344ZM76.9805 34H74.6074V30.4746C73.9954 30.6178 73.3509 30.6895 72.6738 30.6895C71.2285 30.6895 70.125 30.3444 69.3633 29.6543C68.6016 28.9577 68.2207 27.9616 68.2207 26.666V23.4238H70.5938V26.666C70.5938 27.4342 70.763 27.9779 71.1016 28.2969C71.4466 28.6159 71.9707 28.7754 72.6738 28.7754C73.3118 28.7754 73.9564 28.7005 74.6074 28.5508V23.4336H76.9805V34ZM85.8184 34C85.7142 33.7982 85.623 33.4694 85.5449 33.0137C84.7897 33.8014 83.8652 34.1953 82.7715 34.1953C81.7103 34.1953 80.8444 33.8926 80.1738 33.2871C79.5033 32.6816 79.168 31.9329 79.168 31.041C79.168 29.9147 79.5846 29.0521 80.418 28.4531C81.2578 27.8477 82.4557 27.5449 84.0117 27.5449H85.4668V26.8516C85.4668 26.3047 85.3138 25.8685 85.0078 25.543C84.7018 25.2109 84.2363 25.0449 83.6113 25.0449C83.071 25.0449 82.6283 25.1816 82.2832 25.4551C81.9382 25.722 81.7656 26.0638 81.7656 26.4805H79.3926C79.3926 25.901 79.5846 25.3607 79.9688 24.8594C80.3529 24.3516 80.8737 23.9544 81.5312 23.668C82.1953 23.3815 82.9342 23.2383 83.748 23.2383C84.985 23.2383 85.9714 23.5508 86.707 24.1758C87.4427 24.7943 87.8203 25.6667 87.8398 26.793V31.5586C87.8398 32.5091 87.9733 33.2676 88.2402 33.834V34H85.8184ZM83.2109 32.291C83.6797 32.291 84.1191 32.1771 84.5293 31.9492C84.946 31.7214 85.2585 31.4154 85.4668 31.0312V29.0391H84.1875C83.3086 29.0391 82.6478 29.1921 82.2051 29.498C81.7624 29.804 81.541 30.237 81.541 30.7969C81.541 31.2526 81.6908 31.6172 81.9902 31.8906C82.2962 32.1576 82.7031 32.291 83.2109 32.291ZM94.666 32.3008C95.2585 32.3008 95.75 32.1283 96.1406 31.7832C96.5312 31.4382 96.7396 31.0117 96.7656 30.5039H99.002C98.9759 31.1615 98.7708 31.7767 98.3867 32.3496C98.0026 32.916 97.4818 33.3652 96.8242 33.6973C96.1667 34.0293 95.457 34.1953 94.6953 34.1953C93.2174 34.1953 92.0456 33.7168 91.1797 32.7598C90.3138 31.8027 89.8809 30.4811 89.8809 28.7949V28.5508C89.8809 26.9427 90.3105 25.6569 91.1699 24.6934C92.0293 23.7233 93.2012 23.2383 94.6855 23.2383C95.9421 23.2383 96.9642 23.6061 97.752 24.3418C98.5462 25.071 98.9629 26.0312 99.002 27.2227H96.7656C96.7396 26.6172 96.5312 26.1191 96.1406 25.7285C95.7565 25.3379 95.265 25.1426 94.666 25.1426C93.8978 25.1426 93.3053 25.4225 92.8887 25.9824C92.472 26.5358 92.2604 27.3789 92.2539 28.5117V28.8926C92.2539 30.0384 92.459 30.8945 92.8691 31.4609C93.2858 32.0208 93.8848 32.3008 94.666 32.3008ZM114.734 34H112.361V25.3477H108.24V34H105.867V23.4336H114.734V34ZM116.814 28.6191C116.814 27.584 117.02 26.653 117.43 25.8262C117.84 24.9928 118.416 24.3548 119.158 23.9121C119.9 23.4629 120.753 23.2383 121.717 23.2383C123.143 23.2383 124.298 23.6973 125.184 24.6152C126.076 25.5332 126.557 26.7507 126.629 28.2676L126.639 28.8242C126.639 29.8659 126.437 30.7969 126.033 31.6172C125.636 32.4375 125.063 33.0723 124.314 33.5215C123.572 33.9707 122.713 34.1953 121.736 34.1953C120.245 34.1953 119.051 33.7005 118.152 32.7109C117.26 31.7148 116.814 30.39 116.814 28.7363V28.6191ZM119.188 28.8242C119.188 29.9115 119.412 30.7643 119.861 31.3828C120.311 31.9948 120.936 32.3008 121.736 32.3008C122.537 32.3008 123.159 31.9883 123.602 31.3633C124.051 30.7383 124.275 29.8236 124.275 28.6191C124.275 27.5514 124.044 26.7051 123.582 26.0801C123.126 25.4551 122.505 25.1426 121.717 25.1426C120.942 25.1426 120.327 25.4518 119.871 26.0703C119.415 26.6823 119.188 27.6003 119.188 28.8242ZM132.4 29.8203H131.199V34H128.826V23.4336H131.199V27.6523H132.244L135.164 23.4336H138.094L134.275 28.4922L138.416 34H135.33L132.4 29.8203ZM143.416 30.6016L145.564 23.4336H148.094L143.895 35.6016C143.25 37.3789 142.156 38.2676 140.613 38.2676C140.268 38.2676 139.887 38.209 139.471 38.0918V36.2559L139.92 36.2852C140.519 36.2852 140.968 36.1745 141.268 35.9531C141.574 35.7383 141.814 35.3737 141.99 34.8594L142.332 33.9512L138.621 23.4336H141.18L143.416 30.6016ZM158.426 34H156.053V25.3477H151.932V34H149.559V23.4336H158.426V34ZM167.264 34C167.16 33.7982 167.068 33.4694 166.99 33.0137C166.235 33.8014 165.311 34.1953 164.217 34.1953C163.156 34.1953 162.29 33.8926 161.619 33.2871C160.949 32.6816 160.613 31.9329 160.613 31.041C160.613 29.9147 161.03 29.0521 161.863 28.4531C162.703 27.8477 163.901 27.5449 165.457 27.5449H166.912V26.8516C166.912 26.3047 166.759 25.8685 166.453 25.543C166.147 25.2109 165.682 25.0449 165.057 25.0449C164.516 25.0449 164.074 25.1816 163.729 25.4551C163.383 25.722 163.211 26.0638 163.211 26.4805H160.838C160.838 25.901 161.03 25.3607 161.414 24.8594C161.798 24.3516 162.319 23.9544 162.977 23.668C163.641 23.3815 164.38 23.2383 165.193 23.2383C166.43 23.2383 167.417 23.5508 168.152 24.1758C168.888 24.7943 169.266 25.6667 169.285 26.793V31.5586C169.285 32.5091 169.419 33.2676 169.686 33.834V34H167.264ZM164.656 32.291C165.125 32.291 165.564 32.1771 165.975 31.9492C166.391 31.7214 166.704 31.4154 166.912 31.0312V29.0391H165.633C164.754 29.0391 164.093 29.1921 163.65 29.498C163.208 29.804 162.986 30.237 162.986 30.7969C162.986 31.2526 163.136 31.6172 163.436 31.8906C163.742 32.1576 164.148 32.291 164.656 32.291ZM174.344 27.6816H176.336C176.512 26.334 177.033 25.2565 177.898 24.4492C178.764 23.6419 179.858 23.2383 181.18 23.2383C182.605 23.2383 183.761 23.6973 184.646 24.6152C185.538 25.5332 186.02 26.7507 186.092 28.2676L186.102 28.8242C186.102 29.8659 185.9 30.7969 185.496 31.6172C185.099 32.4375 184.526 33.0723 183.777 33.5215C183.035 33.9707 182.176 34.1953 181.199 34.1953C179.832 34.1953 178.709 33.7721 177.83 32.9258C176.958 32.0794 176.453 30.9661 176.316 29.5859H174.344V34H171.971V23.4336H174.344V27.6816ZM178.65 28.8242C178.65 29.9115 178.875 30.7643 179.324 31.3828C179.773 31.9948 180.398 32.3008 181.199 32.3008C182 32.3008 182.622 31.9883 183.064 31.3633C183.507 30.7383 183.729 29.8236 183.729 28.6191C183.729 27.5319 183.497 26.6823 183.035 26.0703C182.579 25.4518 181.961 25.1426 181.18 25.1426C180.405 25.1426 179.79 25.4518 179.334 26.0703C178.878 26.6823 178.65 27.6003 178.65 28.8242ZM196.375 25.3184H192.947V34H190.574V25.3184H187.186V23.4336H196.375V25.3184Z" fill="#005BB9"/>
</svg>
